<svg width="96" height="96" xmlns="http://www.w3.org/2000/svg" xmlns:xlink="http://www.w3.org/1999/xlink" xml:space="preserve" overflow="hidden"><defs><clipPath id="clip0"><rect x="221" y="352" width="96" height="96"/></clipPath></defs><g clip-path="url(#clip0)" transform="translate(-221 -352)"><path d="M268.933 366C261.994 365.992 255.506 369.442 251.633 375.2 247.739 380.945 246.917 388.237 249.433 394.705L258.933 415.711 267.133 432.911C267.644 433.905 268.864 434.297 269.858 433.785 270.234 433.592 270.54 433.287 270.733 432.911L278.933 415.711 288.433 394.705C290.948 388.238 290.125 380.949 286.233 375.205 282.361 369.445 275.873 365.993 268.933 366ZM286.587 393.938 277.128 414.853 268.946 432.019 268.919 432.019 260.754 414.89 251.278 393.938C249.02 388.09 249.772 381.506 253.292 376.318 259.116 367.68 270.841 365.399 279.479 371.223 281.493 372.582 283.227 374.316 284.583 376.332 288.096 381.518 288.844 388.095 286.587 393.938Z"/><path d="M268.933 378C263.962 378 259.933 382.029 259.933 387 259.933 391.971 263.962 396 268.933 396 273.904 396 277.933 391.971 277.933 387 277.953 382.049 273.956 378.02 269.005 378 268.981 378 268.957 378 268.933 378ZM268.933 394.005C265.067 394.005 261.933 390.871 261.933 387.005 261.933 383.139 265.067 380.005 268.933 380.005 272.799 380.005 275.933 383.139 275.933 387.005 275.975 390.83 272.908 393.966 269.083 394.008 269.033 394.008 268.983 394.008 268.933 394.008Z"/></g></svg>