<svg width="96" height="96" xmlns="http://www.w3.org/2000/svg" xmlns:xlink="http://www.w3.org/1999/xlink" xml:space="preserve" overflow="hidden"><defs><clipPath id="clip0"><rect x="234" y="525" width="96" height="96"/></clipPath></defs><g clip-path="url(#clip0)" transform="translate(-234 -525)"><path d="M288.5 541.5C288.521 539.597 287.003 538.034 285.1 538L285 538C283.067 538 281.5 539.567 281.5 541.5 281.5 543.433 283.067 545 285 545 286.933 545 288.5 543.433 288.5 541.5ZM286.5 541.484C286.509 542.312 285.845 542.991 285.016 543 284.188 543.009 283.509 542.344 283.5 541.516 283.491 540.688 284.156 540.009 284.984 540 284.989 540 284.995 540 285 540L285.065 540C285.87 540.015 286.512 540.679 286.5 541.484Z"/><path d="M285 577.482 285 577 307 577 307 579 286.515 579 285 577.482Z"/><path d="M307 591 290.823 591 290.159 589 307 589 307 591Z"/><path d="M272.543 565 307 565 307 567 274.539 567 272.543 565Z"/><path d="M242.542 550.912C241.75 551.815 241.839 553.189 242.742 553.982L277.03 588.4 288 592.02 284.376 581.1 250.033 546.689 250 546.652C249.096 545.768 247.647 545.785 246.763 546.689 246.763 546.689 246.763 546.689 246.763 546.689ZM283.994 588.592 278.458 586.765C277.464 585.446 277.728 583.57 279.047 582.576 280.172 581.73 281.734 581.781 282.8 582.7L284.567 588.023ZM275.9 584.435 249.487 557.922 253.956 553.452 280.456 580.007C278.057 580.165 276.126 582.041 275.9 584.435ZM244.027 552.255 248.174 548.1C248.232 548.036 248.314 547.999 248.4 548 248.475 548 248.547 548.029 248.6 548.082L252.546 552.037 248.077 556.505 244.157 552.571 244.111 552.524 244.062 552.481C243.996 552.424 243.981 552.329 244.027 552.255Z"/><path d="M311 539.979 296 539.979 296 537.979C295.997 535.219 293.76 532.982 291 532.979L279 532.979C276.24 532.983 274.004 535.219 274 537.979L274 539.979 259 539.979C256.791 539.979 255 541.77 255 543.979L255 547.424 257 549.424 257 543.979C257 542.874 257.895 541.979 259 541.979L270 541.979 270 552 300 552 300 541.979 311 541.979C312.105 541.979 313 542.874 313 543.979L313 609C313 610.105 312.105 611 311 611L259 611C257.895 611 257 610.105 257 609L257 572.548 255 570.541 255 609C255 611.209 256.791 613 259 613L311 613C313.209 613 315 611.209 315 609L315 543.979C314.997 541.771 313.208 539.982 311 539.979ZM298 550 272 550 272 541.979 276 541.979 276 537.979C276 536.322 277.343 534.979 279 534.979L291 534.979C292.657 534.979 294 536.322 294 537.979L294 541.979 298 541.979Z"/></g></svg>