<svg width="96" height="96" xmlns="http://www.w3.org/2000/svg" xmlns:xlink="http://www.w3.org/1999/xlink" xml:space="preserve" overflow="hidden"><defs><clipPath id="clip0"><rect x="312" y="434" width="96" height="96"/></clipPath></defs><g clip-path="url(#clip0)" transform="translate(-312 -434)"><path d="M393 456C392.993 453.794 391.206 452.007 389 452L371 452 371 449C370.997 446.24 368.76 444.003 366 444L354 444C351.24 444.003 349.003 446.24 349 449L349 452 331 452C328.794 452.007 327.007 453.794 327 456L327 462 331.049 462 333.809 516.254C333.944 518.912 336.138 520.999 338.8 521L381.2 521C383.862 521 386.058 518.913 386.193 516.254L388.951 462 393 462ZM351 449C351 447.343 352.343 446 354 446L366 446C367.657 446 369 447.343 369 449L369 452 351 452ZM384.194 516.152C384.113 517.747 382.797 518.999 381.2 519L338.8 519C337.201 519.002 335.881 517.749 335.8 516.152L333.052 462 386.952 462ZM391 460 329 460 329 456C329 454.895 329.895 454 331 454L389 454C390.105 454 391 454.895 391 456Z"/><path d="M348 512 348.05 512C348.602 511.973 349.027 511.504 349 510.952 349 510.952 349 510.952 349 510.951L347 469.951C346.972 469.399 346.502 468.973 345.95 469.001 345.398 469.029 344.972 469.499 345 470.051L347 511.051C347.027 511.583 347.467 512.001 348 512Z"/><path d="M360 512C360.552 512 361 511.552 361 511L361 470C361 469.448 360.552 469 360 469 359.448 469 359 469.448 359 470L359 511C359 511.552 359.448 512 360 512Z"/><path d="M371.951 512 372 512C372.534 512.001 372.974 511.582 373 511.049L375 470.049C375.028 469.497 374.602 469.027 374.05 468.999 373.498 468.971 373.028 469.397 373 469.949L371 510.949C370.971 511.5 371.395 511.971 371.947 512 371.948 512 371.949 512 371.951 512Z"/></g></svg>