<svg width="96" height="96" xmlns="http://www.w3.org/2000/svg" xmlns:xlink="http://www.w3.org/1999/xlink" xml:space="preserve" overflow="hidden"><defs><clipPath id="clip0"><rect x="312" y="434" width="96" height="96"/></clipPath></defs><g clip-path="url(#clip0)" transform="translate(-312 -434)"><path d="M328.225 495.925C325.156 494.801 322.653 492.513 321.26 489.556 319.383 485.376 319.867 480.514 322.53 476.786 325.242 473.107 329.773 471.239 334.29 471.936L337.84 472.526 337.84 468.656C337.871 461.573 342.686 455.405 349.55 453.656 356.435 451.996 363.554 455.315 366.71 461.656L367.92 464.066 370.43 463.176C374.186 461.851 378.351 462.433 381.6 464.736 384.831 467.101 386.743 470.862 386.75 474.866L386.75 477.986 390.83 477.986C396.012 478.181 400.056 482.539 399.861 487.722 399.675 492.669 395.68 496.623 390.73 496.756L385.48 496.756 372.52 496.734 372.52 502.966 380.17 502.986 390.73 502.986C399.365 502.782 406.2 495.616 405.996 486.98 405.815 479.362 400.17 472.982 392.63 471.876 391.834 466.986 389.147 462.604 385.15 459.676 381.012 456.747 375.847 455.661 370.88 456.676 365.993 449.132 356.881 445.489 348.14 447.586 339.602 449.763 333.213 456.865 331.95 465.586 326.294 465.758 321.025 468.501 317.64 473.036 313.62 478.622 312.888 485.928 315.72 492.2 318.604 498.383 324.649 502.484 331.46 502.88L338.8 502.88 346.52 502.901 346.52 496.689 333.52 496.666 331.72 496.666C330.582 496.594 329.46 496.365 328.385 495.986Z"/><path d="M367.52 514.986 367.52 490.986 380.02 490.986 359.52 466.986 339.02 490.986 351.52 490.986 351.52 514.986 367.52 514.986Z"/></g></svg>