<svg width="96" height="96" xmlns="http://www.w3.org/2000/svg" xmlns:xlink="http://www.w3.org/1999/xlink" xml:space="preserve" overflow="hidden"><defs><clipPath id="clip0"><rect x="312" y="434" width="96" height="96"/></clipPath></defs><g clip-path="url(#clip0)" transform="translate(-312 -434)"><path d="M330 502 389 502C389.6 502 390 501.6 390 501 390 500.8 390 500.7 389.9 500.5L375.9 476.5C375.7 476.2 375.4 476 375 476L375 476C374.6 476 374.3 476.2 374.1 476.5L367.8 488.2 352.8 465.4C352.7 465.2 352.3 465 352 465L352 465C351.7 465 351.3 465.2 351.2 465.5L339.3 484.3C339.2 484.4 339.1 484.6 339 484.7L329.1 500.5C328.8 501 328.9 501.6 329.4 501.9 329.6 501.9 329.8 502 330 502ZM375 479.1 387.3 500 375.5 500 369 490.1 375 479.1C375 479.1 375 479.1 375 479.1 375 479.1 375 479.1 375 479.1ZM362.1 483.2 356 479.6C355.6 479.4 355.1 479.4 354.8 479.8L352 482.6 349.7 480.3C349.4 480 349 479.9 348.6 480.1L342.7 482.7 352 467.9C352 467.9 352 467.9 352 467.9L362.1 483.2ZM340.8 485.8 348.8 482.2 351.3 484.7C351.7 485.1 352.3 485.1 352.7 484.7L355.7 481.7 364.5 486.8C364.5 486.8 364.5 486.8 364.5 486.8L373.1 500 331.8 500 340.8 485.8Z"/><path d="M339 469C340.7 469 342 467.7 342 466 342 464.3 340.7 463 339 463 337.3 463 336 464.3 336 466 336 467.7 337.3 469 339 469ZM339 465C339.6 465 340 465.4 340 466 340 466.6 339.6 467 339 467 338.4 467 338 466.6 338 466 338 465.4 338.4 465 339 465Z"/><path d="M398 454 322 454 322 512 398 512 398 454ZM396 510 324 510 324 456 396 456 396 510Z"/></g></svg>