<svg width="65" height="65" xmlns="http://www.w3.org/2000/svg" xmlns:xlink="http://www.w3.org/1999/xlink" xml:space="preserve" overflow="hidden"><defs><clipPath id="clip0"><rect x="255" y="488" width="65" height="65"/></clipPath></defs><g clip-path="url(#clip0)" transform="translate(-255 -488)"><path d="M311.875 504.25 298.717 504.25 294.654 497.479 280.346 497.479 276.283 504.25 263.125 504.25C261.256 504.252 259.742 505.767 259.74 507.635L259.74 540.135C259.742 542.004 261.256 543.519 263.125 543.521L311.875 543.521C313.744 543.519 315.258 542.004 315.26 540.135L315.26 507.635C315.258 505.767 313.744 504.252 311.875 504.25ZM281.112 498.833 293.888 498.833 297.138 504.25 277.862 504.25ZM311.875 505.604C312.997 505.604 313.906 506.514 313.906 507.635L313.906 540.135C313.906 541.257 312.997 542.167 311.875 542.167L263.125 542.167C262.003 542.167 261.094 541.257 261.094 540.135L261.094 507.635C261.094 506.514 262.003 505.604 263.125 505.604Z"/><path d="M265.156 515.76 273.958 515.76 273.958 509.667 265.156 509.667ZM266.51 511.021 272.604 511.021 272.604 514.406 266.51 514.406Z"/><path d="M287.5 513.052C280.769 513.052 275.312 518.509 275.312 525.24 275.312 531.971 280.769 537.427 287.5 537.427 294.231 537.427 299.688 531.971 299.688 525.24 299.68 518.512 294.228 513.06 287.5 513.052ZM287.5 536.073C281.517 536.073 276.667 531.223 276.667 525.24 276.667 519.256 281.517 514.406 287.5 514.406 293.483 514.406 298.333 519.256 298.333 525.24 298.326 531.22 293.48 536.066 287.5 536.073Z"/><path d="M287.5 517.115C283.013 517.115 279.375 520.752 279.375 525.24 279.375 529.727 283.013 533.365 287.5 533.365 291.987 533.365 295.625 529.727 295.625 525.24 295.62 520.754 291.985 517.119 287.5 517.115ZM287.5 532.01C283.761 532.01 280.729 528.979 280.729 525.24 280.729 521.5 283.761 518.469 287.5 518.469 291.239 518.469 294.271 521.5 294.271 525.24 294.267 528.977 291.238 532.006 287.5 532.01Z"/></g></svg>