<svg width="259" height="158" xmlns="http://www.w3.org/2000/svg" xmlns:xlink="http://www.w3.org/1999/xlink" xml:space="preserve" overflow="hidden"><defs><clipPath id="clip0"><rect x="2064" y="2269" width="259" height="158"/></clipPath></defs><g clip-path="url(#clip0)" transform="translate(-2064 -2269)"><path d="M2131.35 2346.51 2132.99 2346.51 2132.99 2365.71C2132.99 2367.25 2133.06 2368.32 2133.21 2368.92 2133.35 2369.52 2133.62 2369.98 2134.02 2370.29 2134.43 2370.6 2135.09 2370.87 2136 2371.11L2136 2372.42 2125.47 2372.42 2125.47 2371.11C2126.17 2370.89 2126.67 2370.7 2126.96 2370.54 2127.26 2370.38 2127.51 2370.16 2127.71 2369.87 2127.92 2369.59 2128.08 2369.15 2128.2 2368.56 2128.31 2367.97 2128.37 2367.04 2128.37 2365.79L2128.37 2354.08C2128.37 2352.94 2128.35 2352.01 2128.32 2351.31 2128.28 2350.62 2128.16 2350.06 2127.94 2349.64 2127.73 2349.22 2127.4 2348.9 2126.96 2348.7 2126.52 2348.49 2125.9 2348.32 2125.09 2348.17L2125.09 2346.75ZM2128.21 2336.22 2133.15 2336.22 2133.15 2341.43 2128.21 2341.43Z" fill-rule="evenodd"/><text fill="#000000" fill-opacity="0" font-family="Arial,Arial_MSFontService,sans-serif" font-size="36.2012" x="2125.09" y="2367.9">ⅈ</text><path d="M2157.62 2360.5 2190.71 2360.5 2190.71 2364.07 2157.62 2364.07ZM2157.62 2349.35 2190.71 2349.35 2190.71 2352.93 2157.62 2352.93Z" fill-rule="evenodd"/><text fill="#000000" fill-opacity="0" font-family="Arial,Arial_MSFontService,sans-serif" font-size="14.7168" x="2157.62" y="2362.23">=</text><path d="M2218.67 2294.15 2227.24 2294.15 2234.33 2315.07C2235.35 2318.08 2236.13 2320.62 2236.69 2322.7L2236.98 2322.7C2237.13 2321.6 2237.45 2319.79 2237.96 2317.24 2238.47 2314.7 2238.94 2312.48 2239.37 2310.58L2241.25 2302.12C2241.65 2300.35 2241.84 2298.91 2241.84 2297.8 2241.84 2296.96 2241.63 2296.37 2241.21 2296.04 2240.79 2295.71 2240.13 2295.52 2239.21 2295.46L2239.51 2294.15 2248.91 2294.15 2248.61 2295.46C2247.93 2295.61 2247.44 2295.77 2247.15 2295.95 2246.85 2296.13 2246.59 2296.4 2246.36 2296.75 2246.12 2297.11 2245.88 2297.67 2245.63 2298.43 2245.38 2299.19 2245.07 2300.43 2244.69 2302.15L2238.38 2330.81 2234.73 2330.81 2226.89 2307.76C2225.94 2305.01 2225.1 2302.26 2224.39 2299.52L2224.04 2299.52C2223.93 2300.43 2223.64 2302.17 2223.15 2304.74 2222.67 2307.31 2222.16 2309.82 2221.62 2312.28L2219.26 2322.99C2218.88 2324.69 2218.7 2326.09 2218.7 2327.18 2218.7 2327.99 2218.9 2328.56 2219.3 2328.89 2219.7 2329.22 2220.38 2329.42 2221.33 2329.49L2221.03 2330.81 2211.63 2330.81 2211.93 2329.49C2212.61 2329.38 2213.12 2329.21 2213.46 2328.97 2213.8 2328.73 2214.09 2328.39 2214.32 2327.96 2214.55 2327.53 2214.77 2327.01 2214.96 2326.39 2215.16 2325.77 2215.46 2324.58 2215.85 2322.8L2220.41 2302.12C2220.59 2301.36 2220.74 2300.62 2220.84 2299.92 2220.95 2299.22 2221.01 2298.52 2221.01 2297.8 2221.01 2296.96 2220.79 2296.37 2220.37 2296.04 2219.95 2295.71 2219.29 2295.52 2218.37 2295.46Z" fill-rule="evenodd"/><text fill="#000000" fill-opacity="0" font-family="Arial,Arial_MSFontService,sans-serif" font-size="36.6577" x="2211.63" y="2326.22">𝑁</text><path d="M2223.11 2383.07C2224.23 2383.07 2225.13 2383.45 2225.78 2384.19 2226.43 2384.93 2226.76 2385.9 2226.76 2387.1 2226.76 2388.05 2226.54 2389.11 2226.11 2390.27L2226.44 2390.38C2228.19 2387.91 2229.86 2386.08 2231.45 2384.89 2233.03 2383.7 2234.66 2383.1 2236.35 2383.1 2238.01 2383.1 2239.29 2383.58 2240.19 2384.54 2241.08 2385.5 2241.53 2386.82 2241.53 2388.53 2241.53 2389.65 2241.27 2391.26 2240.75 2393.33L2239.01 2400.37C2238.52 2402.32 2238.28 2403.7 2238.28 2404.5 2238.28 2405.22 2238.4 2405.74 2238.63 2406.06 2238.86 2406.38 2239.23 2406.55 2239.73 2406.55 2240.27 2406.55 2240.84 2406.33 2241.45 2405.89 2242.06 2405.45 2242.92 2404.61 2244.03 2403.38L2245.56 2404.88C2244.02 2406.53 2242.68 2407.73 2241.53 2408.49 2240.38 2409.25 2239.08 2409.63 2237.61 2409.63 2236.44 2409.63 2235.51 2409.22 2234.82 2408.39 2234.12 2407.55 2233.77 2406.49 2233.77 2405.2 2233.77 2404.04 2234.06 2402.33 2234.65 2400.07L2235.84 2395.43C2236.27 2393.74 2236.55 2392.5 2236.68 2391.69 2236.82 2390.89 2236.88 2390.24 2236.88 2389.73 2236.88 2388.5 2236.68 2387.61 2236.27 2387.06 2235.85 2386.52 2235.18 2386.24 2234.25 2386.24 2233.5 2386.24 2232.69 2386.54 2231.82 2387.14 2230.95 2387.74 2230.03 2388.65 2229.06 2389.86 2228.08 2391.06 2227.3 2392.24 2226.71 2393.37 2226.11 2394.51 2225.63 2395.91 2225.26 2397.58L2222.7 2409.2 2218.06 2409.2 2221.98 2392.18C2222.37 2390.46 2222.57 2389.13 2222.57 2388.2 2222.57 2387.49 2222.45 2386.97 2222.22 2386.65 2221.99 2386.32 2221.62 2386.16 2221.12 2386.16 2220.56 2386.16 2219.98 2386.39 2219.36 2386.85 2218.74 2387.3 2217.9 2388.13 2216.82 2389.33L2215.29 2387.83C2216.94 2386.11 2218.31 2384.89 2219.4 2384.16 2220.49 2383.44 2221.73 2383.07 2223.11 2383.07Z" fill-rule="evenodd"/><text fill="#000000" fill-opacity="0" font-family="Arial,Arial_MSFontService,sans-serif" font-size="26.5601" x="2215.29" y="2406.31">𝑛</text><path d="M2209.99 2354.42 2250.99 2354.42 2250.99 2358.42 2209.99 2358.42Z" fill-rule="evenodd"/></g></svg>