<svg width="221" height="221" xmlns="http://www.w3.org/2000/svg" xmlns:xlink="http://www.w3.org/1999/xlink" xml:space="preserve" overflow="hidden"><defs><clipPath id="clip0"><rect x="518" y="238" width="221" height="221"/></clipPath></defs><g clip-path="url(#clip0)" transform="translate(-518 -238)"><path d="M624.764 281.74 624.764 327.781 629.368 327.781 629.368 302.458 648.068 302.458 656.125 294.401 647.9 286.344 629.368 286.344 629.368 256.417C629.368 255.145 628.337 254.115 627.066 254.115 625.794 254.115 624.764 255.145 624.764 256.417L624.764 265.625 606.23 265.625 598.004 273.682 606.062 281.74Z"/><path d="M709.073 438.281 674.542 354.681C668.809 340.802 670.597 324.953 679.277 312.7L701.207 281.74 681.448 281.74 643.613 319.574C635.41 327.777 630.802 338.902 630.802 350.503L630.802 355.406 623.896 355.406 623.896 350.503C623.896 338.902 619.288 327.777 611.085 319.574L573.25 281.74 553.491 281.74 575.421 312.7C584.101 324.953 585.888 340.802 580.156 354.681L545.625 438.281 623.896 438.281 623.896 424.469 630.802 424.469 630.802 438.281ZM630.802 369.219 630.802 383.031 623.896 383.031 623.896 369.219ZM623.896 410.656 623.896 396.844 630.802 396.844 630.802 410.656Z"/></g></svg>