<svg width="632" height="208" xmlns="http://www.w3.org/2000/svg" xmlns:xlink="http://www.w3.org/1999/xlink" xml:space="preserve" overflow="hidden"><defs><clipPath id="clip0"><rect x="1854" y="1468" width="632" height="208"/></clipPath></defs><g clip-path="url(#clip0)" transform="translate(-1854 -1468)"><path d="M1927.54 1548.34C1928.57 1548.34 1929.38 1548.67 1929.97 1549.35 1930.57 1550.02 1930.86 1550.91 1930.86 1552 1930.86 1552.86 1930.67 1553.82 1930.28 1554.88L1930.57 1554.98C1932.17 1552.73 1933.68 1551.07 1935.13 1549.98 1936.57 1548.9 1938.05 1548.36 1939.58 1548.36 1941.09 1548.36 1942.26 1548.8 1943.07 1549.67 1943.89 1550.54 1944.29 1551.75 1944.29 1553.29 1944.29 1554.32 1944.06 1555.77 1943.58 1557.66L1942 1564.06C1941.56 1565.83 1941.34 1567.09 1941.34 1567.82 1941.34 1568.47 1941.44 1568.94 1941.66 1569.23 1941.87 1569.53 1942.2 1569.67 1942.66 1569.67 1943.15 1569.67 1943.67 1569.47 1944.22 1569.08 1944.77 1568.68 1945.55 1567.92 1946.56 1566.79L1947.95 1568.16C1946.55 1569.66 1945.33 1570.75 1944.29 1571.44 1943.25 1572.14 1942.06 1572.48 1940.73 1572.48 1939.67 1572.48 1938.82 1572.1 1938.19 1571.35 1937.55 1570.59 1937.24 1569.63 1937.24 1568.45 1937.24 1567.4 1937.51 1565.84 1938.04 1563.79L1939.12 1559.57C1939.51 1558.04 1939.76 1556.91 1939.89 1556.17 1940.01 1555.44 1940.07 1554.85 1940.07 1554.39 1940.07 1553.27 1939.88 1552.46 1939.51 1551.96 1939.13 1551.47 1938.52 1551.22 1937.68 1551.22 1936.99 1551.22 1936.26 1551.49 1935.47 1552.03 1934.68 1552.58 1933.84 1553.4 1932.95 1554.5 1932.07 1555.6 1931.35 1556.67 1930.82 1557.7 1930.28 1558.73 1929.84 1560.01 1929.5 1561.52L1927.18 1572.09 1922.95 1572.09 1926.52 1556.61C1926.88 1555.05 1927.06 1553.85 1927.06 1553 1927.06 1552.35 1926.95 1551.88 1926.74 1551.58 1926.53 1551.29 1926.19 1551.14 1925.74 1551.14 1925.23 1551.14 1924.7 1551.35 1924.14 1551.77 1923.58 1552.18 1922.81 1552.93 1921.83 1554.02L1920.44 1552.66C1921.94 1551.09 1923.18 1549.98 1924.18 1549.32 1925.17 1548.67 1926.29 1548.34 1927.54 1548.34Z" fill-rule="evenodd"/><text fill="#000000" fill-opacity="0" font-family="Arial,Arial_MSFontService,sans-serif" font-size="24.1455" x="1920.44" y="1569.46">𝑛</text><path d="M1967.01 1561.25 1997.09 1561.25 1997.09 1564.5 1967.01 1564.5ZM1967.01 1551.12 1997.09 1551.12 1997.09 1554.37 1967.01 1554.37Z" fill-rule="evenodd"/><text fill="#000000" fill-opacity="0" font-family="Arial,Arial_MSFontService,sans-serif" font-size="13.3789" x="1967.01" y="1562.83">=</text><path d="M2143.7 1500.61 2151.49 1500.61 2157.93 1519.63C2158.86 1522.36 2159.57 1524.67 2160.08 1526.56L2160.35 1526.56C2160.48 1525.57 2160.78 1523.92 2161.24 1521.61 2161.7 1519.29 2162.13 1517.28 2162.52 1515.55L2164.23 1507.86C2164.59 1506.25 2164.77 1504.94 2164.77 1503.93 2164.77 1503.16 2164.58 1502.63 2164.19 1502.33 2163.81 1502.03 2163.2 1501.85 2162.37 1501.81L2162.64 1500.61 2171.19 1500.61 2170.92 1501.81C2170.3 1501.94 2169.86 1502.08 2169.59 1502.25 2169.32 1502.41 2169.08 1502.65 2168.87 1502.98 2168.66 1503.3 2168.44 1503.81 2168.21 1504.5 2167.98 1505.2 2167.7 1506.32 2167.35 1507.89L2161.62 1533.93 2158.3 1533.93 2151.17 1512.99C2150.31 1510.48 2149.55 1507.98 2148.9 1505.49L2148.58 1505.49C2148.48 1506.32 2148.21 1507.91 2147.77 1510.24 2147.34 1512.58 2146.87 1514.86 2146.38 1517.09L2144.23 1526.83C2143.89 1528.38 2143.72 1529.65 2143.72 1530.64 2143.72 1531.37 2143.91 1531.89 2144.27 1532.19 2144.64 1532.49 2145.25 1532.67 2146.11 1532.74L2145.85 1533.93 2137.3 1533.93 2137.57 1532.74C2138.19 1532.64 2138.65 1532.48 2138.96 1532.26 2139.27 1532.04 2139.53 1531.74 2139.74 1531.35 2139.95 1530.96 2140.15 1530.48 2140.33 1529.92 2140.51 1529.36 2140.78 1528.27 2141.13 1526.66L2145.28 1507.86C2145.45 1507.16 2145.58 1506.49 2145.68 1505.86 2145.77 1505.22 2145.82 1504.58 2145.82 1503.93 2145.82 1503.16 2145.63 1502.63 2145.25 1502.33 2144.87 1502.03 2144.26 1501.85 2143.43 1501.81Z" fill-rule="evenodd"/><text fill="#000000" fill-opacity="0" font-family="Arial,Arial_MSFontService,sans-serif" font-size="33.3252" x="2137.3" y="1529.77">𝑁</text><path d="M2191.95 1506.27 2203.01 1517.31 2214.07 1506.27 2216.37 1508.54 2205.43 1519.68 2216.39 1530.76 2213.95 1533.2 2203.01 1522.05 2191.73 1533.1 2189.46 1530.81 2200.62 1519.68 2189.51 1508.72Z" fill-rule="evenodd"/><text fill="#000000" fill-opacity="0" font-family="Arial,Arial_MSFontService,sans-serif" font-size="26.9287" x="2189.46" y="1529.84">×</text><path d="M2249.73 1513.89C2247.55 1513.96 2245.59 1514.59 2243.87 1515.78 2242.14 1516.98 2240.8 1518.59 2239.85 1520.6 2238.9 1522.62 2238.42 1524.86 2238.42 1527.32 2238.42 1528.59 2238.63 1529.61 2239.05 1530.38 2239.46 1531.16 2239.98 1531.69 2240.6 1531.98 2241.21 1532.27 2241.88 1532.42 2242.6 1532.42 2244.24 1532.42 2245.67 1531.88 2246.87 1530.81 2248.07 1529.74 2249.05 1528.1 2249.79 1525.9 2250.53 1523.71 2250.9 1521.57 2250.9 1519.51 2250.9 1517.28 2250.51 1515.4 2249.73 1513.89ZM2253.49 1510.59 2261.25 1510.59 2260.52 1513.82 2252.53 1513.82 2252.49 1514.01C2253.41 1515.12 2254.08 1516.23 2254.49 1517.36 2254.89 1518.48 2255.1 1519.71 2255.1 1521.04 2255.1 1523.47 2254.58 1525.72 2253.54 1527.79 2252.49 1529.87 2251.04 1531.48 2249.17 1532.62 2247.29 1533.76 2245.18 1534.33 2242.82 1534.33 2240.13 1534.33 2238.09 1533.61 2236.68 1532.16 2235.27 1530.72 2234.57 1528.69 2234.57 1526.05 2234.57 1524.24 2234.84 1522.53 2235.38 1520.91 2235.93 1519.29 2236.73 1517.8 2237.8 1516.44 2238.87 1515.08 2240.08 1513.98 2241.43 1513.13 2242.78 1512.29 2244.39 1511.65 2246.26 1511.23 2248.13 1510.81 2250.54 1510.59 2253.49 1510.59Z" fill-rule="evenodd"/><text fill="#000000" fill-opacity="0" font-family="Arial,Arial_MSFontService,sans-serif" font-size="23.7305" x="2234.57" y="1531.36">𝜎</text><path d="M2275.33 1492.07C2276.58 1492.07 2277.65 1492.21 2278.54 1492.49 2279.42 1492.78 2280.14 1493.16 2280.7 1493.64 2281.25 1494.12 2281.65 1494.7 2281.9 1495.37 2282.14 1496.05 2282.27 1496.78 2282.27 1497.56 2282.27 1498.03 2282.23 1498.47 2282.17 1498.87 2282.1 1499.27 2281.99 1499.67 2281.82 1500.06 2281.66 1500.45 2281.45 1500.85 2281.18 1501.25 2280.92 1501.64 2280.59 1502.06 2280.19 1502.51 2279.89 1502.9 2279.5 1503.34 2279.01 1503.85 2278.53 1504.35 2278.01 1504.9 2277.43 1505.47 2276.86 1506.05 2276.26 1506.65 2275.64 1507.28 2275.01 1507.91 2274.4 1508.53 2273.81 1509.14 2273.22 1509.75 2272.68 1510.35 2272.19 1510.93 2271.69 1511.51 2271.29 1512.04 2270.98 1512.52L2277.66 1512.52C2278.23 1512.52 2278.68 1512.5 2279.01 1512.46 2279.35 1512.41 2279.63 1512.32 2279.85 1512.18 2280.08 1512.03 2280.27 1511.81 2280.42 1511.52 2280.58 1511.22 2280.76 1510.81 2280.97 1510.3L2282.65 1510.3C2282.59 1511.15 2282.53 1512.01 2282.47 1512.88 2282.42 1513.75 2282.36 1514.61 2282.3 1515.46L2267 1515.46 2267 1514.52C2267.29 1513.87 2267.63 1513.23 2268.01 1512.6 2268.4 1511.97 2268.83 1511.33 2269.31 1510.68 2269.79 1510.03 2270.34 1509.35 2270.96 1508.66 2271.57 1507.97 2272.25 1507.25 2273 1506.5 2274.13 1505.37 2275.05 1504.4 2275.76 1503.6 2276.47 1502.8 2277.03 1502.09 2277.44 1501.46 2277.85 1500.84 2278.13 1500.26 2278.28 1499.73 2278.43 1499.2 2278.51 1498.63 2278.51 1498.03 2278.51 1497.42 2278.42 1496.85 2278.25 1496.33 2278.07 1495.81 2277.82 1495.37 2277.5 1495.01 2277.17 1494.65 2276.76 1494.37 2276.26 1494.16 2275.76 1493.96 2275.18 1493.86 2274.53 1493.86 2273.41 1493.86 2272.47 1494.16 2271.72 1494.77 2270.96 1495.38 2270.37 1496.26 2269.95 1497.42L2267.58 1497.42 2267.58 1493.89C2269.12 1493.25 2270.54 1492.79 2271.83 1492.5 2273.13 1492.21 2274.29 1492.07 2275.33 1492.07Z" fill-rule="evenodd"/><text fill="#000000" fill-opacity="0" font-family="Arial,Arial_MSFontService,sans-serif" font-size="23.396" x="2267" y="1512.54">2</text><path d="M2030.89 1582.35C2029.24 1582.35 2027.66 1583.18 2026.14 1584.84 2024.62 1586.5 2023.45 1588.74 2022.63 1591.58 2024.93 1591.56 2026.9 1591.35 2028.54 1590.95 2030.19 1590.56 2031.45 1589.92 2032.33 1589.05 2033.21 1588.18 2033.64 1587 2033.64 1585.52 2033.64 1584.53 2033.41 1583.75 2032.95 1583.19 2032.48 1582.63 2031.8 1582.35 2030.89 1582.35ZM2031.76 1580.42C2033.73 1580.42 2035.21 1580.82 2036.2 1581.62 2037.18 1582.41 2037.67 1583.66 2037.67 1585.35 2037.67 1588.12 2036.37 1590.19 2033.78 1591.58 2031.18 1592.96 2027.33 1593.65 2022.22 1593.65 2022.02 1594.63 2021.93 1595.69 2021.93 1596.83 2021.93 1598.53 2022.26 1599.78 2022.93 1600.55 2023.59 1601.32 2024.68 1601.71 2026.2 1601.71 2027.7 1601.71 2029.05 1601.38 2030.26 1600.73 2031.48 1600.08 2032.76 1599.08 2034.11 1597.73L2035.62 1599.32C2034.04 1601.06 2032.44 1602.37 2030.82 1603.25 2029.21 1604.13 2027.32 1604.56 2025.17 1604.56 2022.81 1604.56 2020.99 1603.84 2019.69 1602.4 2018.4 1600.96 2017.75 1598.96 2017.75 1596.39 2017.75 1594.64 2018.06 1592.78 2018.69 1590.78 2019.32 1588.79 2020.27 1587 2021.54 1585.41 2022.8 1583.83 2024.33 1582.6 2026.1 1581.73 2027.87 1580.85 2029.76 1580.42 2031.76 1580.42Z" fill-rule="evenodd"/><text fill="#000000" fill-opacity="0" font-family="Arial,Arial_MSFontService,sans-serif" font-size="24.1455" x="2017.75" y="1601.55">ⅇ</text><path d="M2053.89 1565.63C2055.14 1565.63 2056.21 1565.77 2057.09 1566.05 2057.98 1566.34 2058.7 1566.72 2059.25 1567.2 2059.81 1567.68 2060.21 1568.26 2060.45 1568.94 2060.7 1569.61 2060.82 1570.34 2060.82 1571.12 2060.82 1571.59 2060.79 1572.03 2060.72 1572.43 2060.66 1572.84 2060.54 1573.23 2060.38 1573.62 2060.22 1574.02 2060 1574.41 2059.74 1574.81 2059.47 1575.21 2059.14 1575.63 2058.75 1576.07 2058.44 1576.46 2058.05 1576.9 2057.57 1577.41 2057.09 1577.92 2056.56 1578.46 2055.99 1579.04 2055.42 1579.61 2054.82 1580.22 2054.19 1580.84 2053.57 1581.47 2052.96 1582.09 2052.37 1582.7 2051.78 1583.32 2051.24 1583.91 2050.74 1584.49 2050.25 1585.07 2049.84 1585.6 2049.53 1586.08L2056.22 1586.08C2056.78 1586.08 2057.23 1586.06 2057.57 1586.02 2057.91 1585.98 2058.19 1585.88 2058.41 1585.74 2058.63 1585.59 2058.82 1585.37 2058.98 1585.08 2059.14 1584.78 2059.32 1584.38 2059.52 1583.86L2061.2 1583.86C2061.14 1584.71 2061.08 1585.58 2061.03 1586.44 2060.98 1587.31 2060.92 1588.17 2060.86 1589.03L2045.56 1589.03 2045.56 1588.09C2045.85 1587.44 2046.18 1586.8 2046.57 1586.16 2046.95 1585.53 2047.39 1584.89 2047.87 1584.24 2048.35 1583.59 2048.9 1582.92 2049.51 1582.22 2050.13 1581.53 2050.81 1580.81 2051.55 1580.07 2052.69 1578.93 2053.61 1577.97 2054.32 1577.17 2055.03 1576.36 2055.59 1575.65 2056 1575.02 2056.41 1574.4 2056.69 1573.82 2056.84 1573.29 2056.99 1572.76 2057.07 1572.19 2057.07 1571.59 2057.07 1570.98 2056.98 1570.41 2056.8 1569.89 2056.63 1569.38 2056.38 1568.94 2056.05 1568.58 2055.73 1568.21 2055.32 1567.93 2054.82 1567.73 2054.32 1567.52 2053.74 1567.42 2053.09 1567.42 2051.97 1567.42 2051.03 1567.72 2050.27 1568.33 2049.51 1568.94 2048.92 1569.82 2048.5 1570.98L2046.14 1570.98 2046.14 1567.46C2047.68 1566.82 2049.09 1566.35 2050.39 1566.06 2051.68 1565.77 2052.85 1565.63 2053.89 1565.63Z" fill-rule="evenodd"/><text fill="#000000" fill-opacity="0" font-family="Arial,Arial_MSFontService,sans-serif" font-size="23.396" x="2045.56" y="1586.1">2</text><path d="M2042.19 1631.08 2032.65 1646.24 2032.65 1646.58 2042.19 1646.58 2042.19 1640.51C2042.19 1638.98 2042.22 1637.26 2042.26 1635.37 2042.31 1633.47 2042.37 1632.04 2042.44 1631.08ZM2042.9 1625.56 2046.39 1625.56 2046.39 1646.58 2046.9 1646.58C2047.85 1646.58 2048.52 1646.51 2048.93 1646.38 2049.34 1646.24 2049.67 1645.99 2049.94 1645.64 2050.21 1645.29 2050.46 1644.72 2050.69 1643.92L2052.54 1643.92 2052.25 1648.95 2046.39 1648.95 2046.39 1652.96C2046.39 1654.05 2046.43 1654.84 2046.5 1655.35 2046.57 1655.85 2046.7 1656.25 2046.87 1656.55 2047.04 1656.84 2047.29 1657.08 2047.62 1657.28 2047.96 1657.47 2048.5 1657.67 2049.25 1657.86L2049.25 1659.06 2039.34 1659.06 2039.34 1657.86C2040.34 1657.6 2041.02 1657.31 2041.36 1657 2041.7 1656.68 2041.93 1656.23 2042.03 1655.64 2042.14 1655.06 2042.19 1654.16 2042.19 1652.96L2042.19 1648.95 2028.62 1648.95 2028.62 1647.12Z" fill-rule="evenodd"/><text fill="#000000" fill-opacity="0" font-family="Arial,Arial_MSFontService,sans-serif" font-size="33.4961" x="2028.62" y="1654.87">4</text><path d="M2015.22 1618.1 2066.22 1618.1 2066.22 1621.1 2015.22 1621.1Z" fill-rule="evenodd"/><path d="M2084.47 1606.05 2095.53 1617.09 2106.59 1606.05 2108.89 1608.32 2097.95 1619.46 2108.91 1630.54 2106.47 1632.98 2095.53 1621.82 2084.25 1632.88 2081.98 1630.59 2093.14 1619.46 2082.03 1608.49Z" fill-rule="evenodd"/><text fill="#000000" fill-opacity="0" font-family="Arial,Arial_MSFontService,sans-serif" font-size="26.9287" x="2081.98" y="1629.62">×</text><path d="M2273.6 1596.26C2278.35 1597.51 2282 1600.22 2284.55 1604.38 2287.1 1608.53 2288.37 1613.55 2288.37 1619.43 2288.37 1625.32 2287.1 1630.34 2284.56 1634.48 2282.02 1638.62 2278.37 1641.32 2273.6 1642.57L2273.02 1640.69C2276.78 1639.44 2279.57 1636.96 2281.4 1633.27 2283.23 1629.58 2284.15 1624.88 2284.15 1619.18 2284.15 1613.68 2283.24 1609.11 2281.41 1605.47 2279.59 1601.84 2276.77 1599.39 2272.94 1598.14ZM2144.05 1596.26 2144.71 1598.14C2140.91 1599.39 2138.09 1601.84 2136.25 1605.47 2134.42 1609.11 2133.51 1613.68 2133.51 1619.18 2133.51 1624.88 2134.42 1629.58 2136.25 1633.27 2138.09 1636.96 2140.88 1639.44 2144.64 1640.69L2144.05 1642.57C2139.29 1641.32 2135.63 1638.62 2133.09 1634.48 2130.55 1630.34 2129.28 1625.32 2129.28 1619.43 2129.28 1613.55 2130.56 1608.53 2133.1 1604.38 2135.65 1600.22 2139.3 1597.51 2144.05 1596.26Z" fill-rule="evenodd"/><path d="M2153.55 1600.39 2161.34 1600.39 2167.79 1619.41C2168.71 1622.14 2169.43 1624.45 2169.93 1626.34L2170.2 1626.34C2170.33 1625.35 2170.63 1623.7 2171.09 1621.38 2171.56 1619.07 2171.98 1617.06 2172.38 1615.33L2174.08 1607.64C2174.44 1606.03 2174.62 1604.72 2174.62 1603.71 2174.62 1602.94 2174.43 1602.41 2174.05 1602.11 2173.66 1601.81 2173.06 1601.63 2172.23 1601.58L2172.5 1600.39 2181.04 1600.39 2180.77 1601.58C2180.16 1601.72 2179.71 1601.86 2179.44 1602.02 2179.17 1602.19 2178.93 1602.43 2178.72 1602.76 2178.51 1603.08 2178.29 1603.59 2178.06 1604.28 2177.84 1604.97 2177.55 1606.1 2177.21 1607.66L2171.47 1633.71 2168.15 1633.71 2161.02 1612.77C2160.16 1610.26 2159.4 1607.76 2158.75 1605.27L2158.43 1605.27C2158.34 1606.1 2158.07 1607.68 2157.63 1610.02 2157.19 1612.36 2156.73 1614.64 2156.24 1616.87L2154.09 1626.61C2153.75 1628.16 2153.58 1629.43 2153.58 1630.42 2153.58 1631.15 2153.76 1631.67 2154.13 1631.97 2154.49 1632.27 2155.11 1632.45 2155.97 1632.52L2155.7 1633.71 2147.16 1633.71 2147.42 1632.52C2148.04 1632.42 2148.51 1632.26 2148.82 1632.04 2149.12 1631.82 2149.39 1631.52 2149.6 1631.13 2149.81 1630.74 2150 1630.26 2150.18 1629.7 2150.36 1629.14 2150.63 1628.05 2150.99 1626.44L2155.14 1607.64C2155.3 1606.94 2155.43 1606.27 2155.53 1605.64 2155.63 1605 2155.68 1604.36 2155.68 1603.71 2155.68 1602.94 2155.48 1602.41 2155.1 1602.11 2154.72 1601.81 2154.11 1601.63 2153.28 1601.58Z" fill-rule="evenodd"/><text fill="#000000" fill-opacity="0" font-family="Arial,Arial_MSFontService,sans-serif" font-size="33.3252" x="2147.16" y="1629.55">𝑁</text><path d="M2198.56 1617.8 2228.64 1617.8 2228.64 1621.04 2198.56 1621.04Z" fill-rule="evenodd"/><text fill="#000000" fill-opacity="0" font-family="Arial,Arial_MSFontService,sans-serif" font-size="3.24707" x="2198.56" y="1620.64">−</text><path d="M2259.71 1600 2261.06 1600C2260.96 1601.56 2260.91 1603.73 2260.91 1606.49L2260.91 1627.34C2260.91 1628.29 2260.96 1629 2261.07 1629.48 2261.17 1629.96 2261.36 1630.35 2261.63 1630.65 2261.9 1630.95 2262.28 1631.19 2262.79 1631.36 2263.29 1631.53 2263.93 1631.66 2264.69 1631.75 2265.46 1631.84 2266.47 1631.9 2267.72 1631.93L2267.72 1633.71 2249.68 1633.71 2249.68 1631.93C2251.49 1631.85 2252.78 1631.74 2253.55 1631.6 2254.32 1631.46 2254.91 1631.26 2255.32 1630.98 2255.73 1630.7 2256.02 1630.31 2256.21 1629.81 2256.4 1629.3 2256.49 1628.48 2256.49 1627.34L2256.49 1607.54C2256.49 1606.89 2256.38 1606.41 2256.15 1606.11 2255.92 1605.81 2255.59 1605.66 2255.15 1605.66 2254.63 1605.66 2253.89 1605.93 2252.93 1606.47 2251.97 1607 2250.78 1607.75 2249.36 1608.69L2248.29 1606.81Z" fill-rule="evenodd"/><text fill="#000000" fill-opacity="0" font-family="Arial,Arial_MSFontService,sans-serif" font-size="33.7158" x="2248.29" y="1629.5">1</text><path d="M2321.09 1603.73 2324.55 1603.73 2324.55 1617.8 2337.86 1617.8 2337.86 1621.04 2324.55 1621.04 2324.55 1635.11 2321.09 1635.11 2321.09 1621.04 2307.78 1621.04 2307.78 1617.8 2321.09 1617.8Z" fill-rule="evenodd"/><text fill="#000000" fill-opacity="0" font-family="Arial,Arial_MSFontService,sans-serif" font-size="31.3721" x="2307.78" y="1631.18">+</text><path d="M2370.52 1613.67C2368.34 1613.73 2366.39 1614.37 2364.66 1615.56 2362.94 1616.76 2361.6 1618.37 2360.65 1620.38 2359.69 1622.4 2359.22 1624.64 2359.22 1627.1 2359.22 1628.37 2359.42 1629.39 2359.84 1630.16 2360.25 1630.93 2360.77 1631.47 2361.39 1631.76 2362.01 1632.05 2362.68 1632.2 2363.39 1632.2 2365.04 1632.2 2366.46 1631.66 2367.66 1630.59 2368.87 1629.51 2369.84 1627.88 2370.58 1625.68 2371.32 1623.48 2371.69 1621.35 2371.69 1619.29 2371.69 1617.06 2371.3 1615.18 2370.52 1613.67ZM2374.28 1610.37 2382.04 1610.37 2381.31 1613.6 2373.33 1613.6 2373.28 1613.79C2374.21 1614.9 2374.87 1616.01 2375.28 1617.14 2375.69 1618.26 2375.89 1619.49 2375.89 1620.82 2375.89 1623.25 2375.37 1625.5 2374.33 1627.57 2373.29 1629.65 2371.83 1631.26 2369.96 1632.4 2368.09 1633.53 2365.97 1634.1 2363.61 1634.1 2360.93 1634.1 2358.88 1633.38 2357.47 1631.94 2356.06 1630.5 2355.36 1628.46 2355.36 1625.83 2355.36 1624.02 2355.63 1622.31 2356.18 1620.69 2356.72 1619.07 2357.53 1617.58 2358.59 1616.22 2359.66 1614.86 2360.87 1613.76 2362.22 1612.91 2363.57 1612.07 2365.18 1611.43 2367.05 1611.01 2368.93 1610.59 2371.33 1610.37 2374.28 1610.37Z" fill-rule="evenodd"/><text fill="#000000" fill-opacity="0" font-family="Arial,Arial_MSFontService,sans-serif" font-size="23.7305" x="2355.36" y="1631.14">𝜎</text><path d="M2396.12 1595.17C2397.38 1595.17 2398.44 1595.31 2399.33 1595.59 2400.22 1595.88 2400.93 1596.26 2401.49 1596.74 2402.04 1597.22 2402.44 1597.8 2402.69 1598.48 2402.94 1599.15 2403.06 1599.88 2403.06 1600.66 2403.06 1601.13 2403.03 1601.57 2402.96 1601.97 2402.9 1602.38 2402.78 1602.77 2402.62 1603.16 2402.46 1603.56 2402.24 1603.95 2401.98 1604.35 2401.71 1604.75 2401.38 1605.17 2400.98 1605.61 2400.68 1606 2400.29 1606.44 2399.81 1606.95 2399.33 1607.46 2398.8 1608 2398.23 1608.58 2397.66 1609.15 2397.06 1609.76 2396.43 1610.38 2395.8 1611.01 2395.2 1611.63 2394.61 1612.24 2394.02 1612.86 2393.47 1613.45 2392.98 1614.03 2392.49 1614.61 2392.08 1615.14 2391.77 1615.62L2398.45 1615.62C2399.02 1615.62 2399.47 1615.6 2399.81 1615.56 2400.15 1615.52 2400.43 1615.42 2400.65 1615.28 2400.87 1615.13 2401.06 1614.91 2401.22 1614.62 2401.37 1614.32 2401.55 1613.92 2401.76 1613.4L2403.44 1613.4C2403.38 1614.25 2403.32 1615.12 2403.27 1615.98 2403.21 1616.85 2403.16 1617.71 2403.1 1618.57L2387.79 1618.57 2387.79 1617.63C2388.08 1616.98 2388.42 1616.33 2388.81 1615.7 2389.19 1615.07 2389.63 1614.43 2390.11 1613.78 2390.59 1613.13 2391.14 1612.46 2391.75 1611.76 2392.37 1611.07 2393.05 1610.35 2393.79 1609.61 2394.92 1608.47 2395.85 1607.51 2396.56 1606.71 2397.27 1605.9 2397.83 1605.19 2398.24 1604.56 2398.65 1603.94 2398.93 1603.36 2399.08 1602.83 2399.23 1602.3 2399.3 1601.73 2399.3 1601.13 2399.3 1600.52 2399.22 1599.95 2399.04 1599.43 2398.87 1598.92 2398.62 1598.48 2398.29 1598.11 2397.97 1597.75 2397.55 1597.47 2397.05 1597.27 2396.55 1597.06 2395.98 1596.96 2395.33 1596.96 2394.21 1596.96 2393.27 1597.26 2392.51 1597.87 2391.75 1598.48 2391.16 1599.36 2390.74 1600.52L2388.37 1600.52 2388.37 1596.99C2389.91 1596.36 2391.33 1595.89 2392.63 1595.6 2393.92 1595.31 2395.09 1595.17 2396.12 1595.17Z" fill-rule="evenodd"/><text fill="#000000" fill-opacity="0" font-family="Arial,Arial_MSFontService,sans-serif" font-size="23.396" x="2387.79" y="1615.64">2</text><path d="M2015.22 1556.1 2146.22 1556.1 2277.22 1556.1 2408.22 1556.1 2408.22 1559.1 2277.22 1559.1 2146.22 1559.1 2015.22 1559.1Z" fill-rule="evenodd"/></g></svg>