<svg width="96" height="96" xmlns="http://www.w3.org/2000/svg" xmlns:xlink="http://www.w3.org/1999/xlink" xml:space="preserve" overflow="hidden"><defs><clipPath id="clip0"><rect x="312" y="434" width="96" height="96"/></clipPath></defs><g clip-path="url(#clip0)" transform="translate(-312 -434)"><path d="M393.4 455.908 393.014 455.908C392.959 452.91 391.519 450.107 389.114 448.317L389.053 448.271 388.988 448.23C387.393 447.182 385.529 446.617 383.621 446.605 382.618 446.599 381.62 446.747 380.662 447.046 378.763 443.391 374.981 441.104 370.862 441.119 370.032 441.138 369.206 441.226 368.391 441.384L368.332 441.394 368.269 441.408C363.259 442.555 359.697 447 359.67 452.14 359.67 452.194 359.67 452.307 359.67 452.307 359.228 452.231 358.78 452.198 358.331 452.207 355.39 452.213 352.627 453.617 350.887 455.988 348.828 458.77 348.419 462.443 349.814 465.61L349.837 465.663 349.863 465.716C351.401 468.744 354.413 470.746 357.8 470.992L357.886 471 393.291 471C397.414 470.957 400.792 467.712 401 463.594L401 463.554 401 463.514C401 459.315 397.599 455.911 393.4 455.908ZM393.275 469 357.975 469C355.284 468.808 352.888 467.226 351.654 464.826 350.543 462.316 350.862 459.403 352.489 457.192 353.854 455.328 356.023 454.222 358.333 454.211 358.742 454.212 359.151 454.24 359.556 454.296L361.656 454.686C361.661 454.687 361.667 454.684 361.668 454.678 361.668 454.677 361.668 454.677 361.668 454.676L361.668 452.3C361.622 448.036 364.55 444.315 368.705 443.355 369.413 443.217 370.131 443.137 370.852 443.117 374.29 443.1 377.437 445.044 378.962 448.126L379.674 449.549C379.677 449.552 379.683 449.552 379.686 449.549L381.228 448.956C382 448.712 382.805 448.591 383.614 448.598 385.142 448.611 386.633 449.067 387.907 449.91 389.836 451.343 390.984 453.597 391.009 456L391.009 457.9C391.009 457.905 391.013 457.91 391.019 457.91L393.394 457.91C396.487 457.907 398.997 460.411 399 463.504 399 463.507 399 463.511 399 463.514 398.853 466.574 396.338 468.984 393.275 469Z"/><path d="M362 479 324 479C321.791 479 320 480.791 320 483L320 508C320 510.209 321.791 512 324 512L339 512 339 518 333 518 333 520 353 520 353 518 347 518 347 512 362 512C364.209 512 366 510.209 366 508L366 483C366 480.791 364.209 479 362 479ZM345 518 341 518 341 512 345 512ZM364 508C364 509.105 363.105 510 362 510L324 510C322.895 510 322 509.105 322 508L322 483C322 481.895 322.895 481 324 481L362 481C363.105 481 364 481.895 364 483Z"/><path d="M324 508 362 508 362 483 324 483ZM326 485 360 485 360 506 326 506Z"/><path d="M330.958 474.592C330.375 473.292 330.052 471.89 330.007 470.466 329.951 464.19 334.994 459.056 341.27 459 341.337 458.999 341.405 458.999 341.472 459L341.562 459C341.575 459 341.578 459.008 341.569 459.017L336.293 464.293 337.707 465.707 344.414 459 337.707 452.293 336.293 453.707 339.651 457.065C339.659 457.073 339.651 457.081 339.645 457.082 332.464 457.876 327.285 464.341 328.079 471.522 328.228 472.864 328.583 474.175 329.132 475.408Z"/><path d="M384.042 476.408C384.625 477.708 384.948 479.11 384.993 480.534 385.049 486.81 380.006 491.944 373.73 492 373.663 492.001 373.595 492.001 373.528 492L373.438 492C373.425 492 373.422 491.992 373.431 491.983L378.707 486.707 377.293 485.293 370.586 492 377.293 498.707 378.707 497.293 375.349 493.935C375.341 493.927 375.349 493.919 375.355 493.918 382.536 493.124 387.715 486.659 386.921 479.478 386.772 478.136 386.417 476.825 385.868 475.592Z"/></g></svg>