<svg width="96" height="96" xmlns="http://www.w3.org/2000/svg" xmlns:xlink="http://www.w3.org/1999/xlink" xml:space="preserve" overflow="hidden"><defs><clipPath id="clip0"><rect x="312" y="434" width="96" height="96"/></clipPath></defs><g clip-path="url(#clip0)" transform="translate(-312 -434)"><path d="M395.29 445.436C392.117 440.731 385.731 439.489 381.026 442.662 379.931 443.4 378.989 444.342 378.251 445.436 376.334 448.265 375.929 451.855 377.168 455.039L381.846 465.381 385.884 473.851C386.135 474.34 386.735 474.534 387.225 474.283 387.41 474.188 387.562 474.036 387.657 473.851L391.695 465.381 396.373 455.039C397.612 451.855 397.207 448.265 395.29 445.436ZM394.526 454.27 389.89 464.52 386.78 471.044C386.775 471.054 386.767 471.054 386.762 471.044L383.668 464.556 379.015 454.27C378.034 451.706 378.368 448.824 379.911 446.552 382.467 442.764 387.611 441.765 391.4 444.322 392.284 444.918 393.044 445.68 393.639 446.566 395.175 448.835 395.506 451.711 394.526 454.27Z"/><path d="M325.216 483.006C322.84 486.51 322.339 490.957 323.873 494.903L329.669 507.715 334.672 518.208C334.983 518.815 335.727 519.055 336.333 518.744 336.563 518.626 336.75 518.438 336.868 518.208L341.871 507.715 347.667 494.903C349.202 490.957 348.7 486.51 346.325 483.006 342.395 477.177 334.483 475.637 328.654 479.568 327.297 480.482 326.13 481.65 325.216 483.006ZM344.674 484.135C346.668 487.08 347.096 490.814 345.82 494.133L340.066 506.854 335.779 515.845C335.774 515.855 335.766 515.855 335.761 515.845L331.491 506.89 325.72 494.133C324.443 490.808 324.875 487.069 326.875 484.122 330.189 479.209 336.858 477.913 341.771 481.228 342.917 482.001 343.903 482.988 344.674 484.135Z"/><path d="M355.863 516.888C356.853 516.877 357.86 516.86 358.878 516.836L358.83 514.836C357.821 514.86 356.822 514.877 355.839 514.888Z"/><path d="M363.821 478.313 362.924 476.525C361.967 476.996 361.059 477.558 360.21 478.204L361.436 479.785C362.181 479.219 362.98 478.726 363.821 478.313Z"/><path d="M359.625 481.701 357.936 480.63C357.303 481.612 356.932 482.739 356.859 483.905L358.855 484.025C358.906 483.197 359.171 482.396 359.625 481.701Z"/><path d="M352.846 514.909 351.832 514.91 349.851 514.906 349.843 516.906 351.832 516.91 352.85 516.909 352.846 514.909Z"/><path d="M371.65 492.409C370.67 492.163 369.7 491.918 368.757 491.662L368.234 493.593C369.19 493.851 370.171 494.1 371.163 494.349Z"/><path d="M343.847 514.88 343.847 516.88C344.763 516.88 345.767 516.885 346.841 516.891L346.853 514.891C345.774 514.885 344.767 514.88 343.847 514.88Z"/><path d="M359.628 489.926 360.881 488.367C360.209 487.854 359.666 487.193 359.293 486.434L357.482 487.286C357.987 488.318 358.721 489.221 359.628 489.926Z"/><path d="M371.725 473.674 372.132 475.632C373.064 475.439 374.043 475.261 375.043 475.103L374.731 473.127C373.7 473.29 372.689 473.474 371.725 473.674Z"/><path d="M377.757 472.717 377.982 474.705C379.715 474.508 380.852 474.445 380.9 474.443L380.792 472.445C380.667 472.452 379.517 472.517 377.757 472.717Z"/><path d="M389.694 506.092C389.698 505.218 389.601 504.348 389.406 503.496L387.459 503.952C387.619 504.653 387.698 505.37 387.694 506.089 387.694 506.251 387.685 506.412 387.668 506.573L389.655 506.794C389.681 506.561 389.694 506.326 389.694 506.092Z"/><path d="M379.444 512.588 379.967 514.518C380.968 514.251 381.955 513.932 382.922 513.561L382.198 511.696C381.296 512.042 380.377 512.339 379.444 512.588Z"/><path d="M384.731 510.469 385.78 512.172C386.74 511.603 387.593 510.872 388.303 510.011L386.738 508.766C386.172 509.445 385.493 510.021 384.731 510.469Z"/><path d="M380.417 494.962 379.699 496.829C380.597 497.168 381.472 497.563 382.32 498.012L383.264 496.249C382.343 495.761 381.392 495.331 380.417 494.962Z"/><path d="M385.926 498.014 384.646 499.551C385.34 500.119 385.944 500.789 386.437 501.537L388.117 500.452C387.514 499.534 386.776 498.712 385.926 498.014Z"/><path d="M373.676 513.745 373.966 515.724C375.019 515.569 376.031 515.397 376.975 515.211L376.588 513.248C375.676 513.428 374.696 513.595 373.676 513.745Z"/><path d="M362.394 491.595C363.34 492.028 364.31 492.405 365.3 492.725L365.927 490.826C365.011 490.53 364.113 490.182 363.237 489.782Z"/><path d="M364.914 516.597 364.798 514.6C363.806 514.657 362.81 514.704 361.817 514.743L361.896 516.741C362.9 516.703 363.909 516.655 364.914 516.597Z"/><path d="M365.798 475.305 366.476 477.187C367.336 476.877 368.275 476.583 369.267 476.314L368.743 474.384C367.699 474.667 366.708 474.977 365.798 475.305Z"/><path d="M367.933 516.391C368.951 516.309 369.96 516.215 370.951 516.107L370.734 514.119C369.761 514.225 368.771 514.317 367.772 514.397Z"/><path d="M374.573 493.152 374.066 495.087C375.029 495.339 375.987 495.602 376.924 495.887L377.504 493.973C376.544 493.681 375.56 493.411 374.573 493.152Z"/><path d="M386.77 446.815C384.322 446.815 382.338 448.8 382.338 451.247 382.338 453.695 384.323 455.679 386.77 455.679 389.218 455.679 391.202 453.695 391.202 451.247 391.212 448.81 389.245 446.826 386.807 446.815 386.795 446.815 386.782 446.815 386.77 446.815ZM386.77 453.679C385.427 453.679 384.338 452.59 384.338 451.247 384.338 449.904 385.427 448.815 386.77 448.815 388.113 448.815 389.202 449.904 389.202 451.247 389.216 452.576 388.151 453.665 386.822 453.679 386.805 453.68 386.787 453.68 386.77 453.679Z"/><path d="M330.279 490.205C330.279 493.237 332.738 495.696 335.77 495.696 338.803 495.696 341.261 493.238 341.261 490.205 341.262 487.172 338.803 484.714 335.771 484.714 335.77 484.714 335.77 484.714 335.77 484.714 332.75 484.702 330.292 487.139 330.279 490.159 330.279 490.174 330.279 490.19 330.279 490.205ZM339.261 490.205C339.261 492.133 337.698 493.696 335.771 493.696 333.842 493.696 332.279 492.133 332.279 490.205 332.279 488.277 333.842 486.714 335.77 486.714 335.77 486.714 335.77 486.714 335.77 486.714 337.678 486.693 339.241 488.223 339.261 490.13 339.262 490.155 339.262 490.18 339.261 490.205Z"/></g></svg>