<svg width="96" height="96" xmlns="http://www.w3.org/2000/svg" xmlns:xlink="http://www.w3.org/1999/xlink" xml:space="preserve" overflow="hidden"><defs><clipPath id="clip0"><rect x="387" y="521" width="96" height="96"/></clipPath></defs><g clip-path="url(#clip0)" transform="translate(-387 -521)"><path d="M473.751 568.34C472.985 567.468 454.768 547 435 547 415.232 547 397.015 567.468 396.249 568.34 395.917 568.718 395.917 569.282 396.249 569.66 397.015 570.532 415.232 591 435 591 454.768 591 472.985 570.532 473.751 569.66 474.083 569.282 474.083 568.718 473.751 568.34ZM416 569C416 558.507 424.507 550 435 550 445.493 550 454 558.507 454 569 454 579.493 445.493 588 435 588 424.511 587.988 416.012 579.489 416 569ZM398.359 569C400.959 566.24 411.536 555.583 424.112 551.055 424.161 551.037 424.165 551.045 424.12 551.072 414.219 557.048 411.036 569.919 417.012 579.82 418.769 582.731 421.209 585.171 424.12 586.928 424.165 586.955 424.161 586.963 424.112 586.945 411.536 582.417 400.955 571.76 398.359 569ZM445.888 586.945C445.839 586.963 445.835 586.955 445.88 586.928 455.781 580.952 458.964 568.081 452.988 558.18 451.231 555.269 448.791 552.829 445.88 551.072 445.835 551.045 445.839 551.037 445.888 551.055 458.464 555.583 469.045 566.24 471.641 569 469.045 571.76 458.464 582.417 445.888 586.945Z"/><path d="M435 560C430.029 560 426 564.029 426 569 426 573.971 430.029 578 435 578 439.971 578 444 573.971 444 569 443.994 564.032 439.968 560.006 435 560ZM435 576C431.134 576 428 572.866 428 569 428 565.134 431.134 562 435 562 438.866 562 442 565.134 442 569 441.996 572.864 438.864 575.996 435 576Z"/></g></svg>